<svg width="16" height="16" viewBox="0 0 16 16" fill="none" xmlns="http://www.w3.org/2000/svg">
<path d="M8 0.5C3.8645 0.5 0.5 3.8645 0.5 8C0.5 12.1355 3.8645 15.5 8 15.5C12.1355 15.5 15.5 12.1355 15.5 8C15.5 3.8645 12.1355 0.5 8 0.5ZM2 8C2 6.6155 2.4755 5.3435 3.266 4.32725L11.6727 12.734C10.6243 13.5544 9.33129 14.0001 8 14C4.69175 14 2 11.3082 2 8ZM12.734 11.6727L4.32725 3.266C5.37579 2.44572 6.66873 2.00004 8 2C11.3082 2 14 4.69175 14 8C13.9996 9.33121 13.554 10.624 12.734 11.6727Z" fill="#D1432A"/>
</svg>
