<svg width="28" height="22" viewBox="0 0 28 22" fill="none" xmlns="http://www.w3.org/2000/svg">
<path d="M27.3337 2.99992V18.9999C27.3337 19.7333 27.0725 20.361 26.5503 20.8833C26.0281 21.4055 25.4003 21.6666 24.667 21.6666H3.33366C2.60033 21.6666 1.97255 21.4055 1.45033 20.8833C0.928103 20.361 0.666992 19.7333 0.666992 18.9999V2.99992C0.666992 2.26659 0.928103 1.63881 1.45033 1.11659C1.97255 0.594363 2.60033 0.333252 3.33366 0.333252H24.667C25.4003 0.333252 26.0281 0.594363 26.5503 1.11659C27.0725 1.63881 27.3337 2.26659 27.3337 2.99992ZM3.33366 5.66659H24.667V2.99992H3.33366V5.66659ZM3.33366 10.9999V18.9999H24.667V10.9999H3.33366Z" fill="#2D2E3A"/>
</svg>
