<svg width="30" height="22" viewBox="0 0 30 22" fill="none" xmlns="http://www.w3.org/2000/svg">
<path d="M17.6663 12.3333C16.5552 12.3333 15.6108 11.9444 14.833 11.1666C14.0552 10.3888 13.6663 9.44436 13.6663 8.33325C13.6663 7.22214 14.0552 6.2777 14.833 5.49992C15.6108 4.72214 16.5552 4.33325 17.6663 4.33325C18.7775 4.33325 19.7219 4.72214 20.4997 5.49992C21.2775 6.2777 21.6663 7.22214 21.6663 8.33325C21.6663 9.44436 21.2775 10.3888 20.4997 11.1666C19.7219 11.9444 18.7775 12.3333 17.6663 12.3333ZM8.33301 16.3333C7.59967 16.3333 6.9719 16.0721 6.44967 15.5499C5.92745 15.0277 5.66634 14.3999 5.66634 13.6666V2.99992C5.66634 2.26659 5.92745 1.63881 6.44967 1.11659C6.9719 0.594363 7.59967 0.333252 8.33301 0.333252H26.9997C27.733 0.333252 28.3608 0.594363 28.883 1.11659C29.4052 1.63881 29.6663 2.26659 29.6663 2.99992V13.6666C29.6663 14.3999 29.4052 15.0277 28.883 15.5499C28.3608 16.0721 27.733 16.3333 26.9997 16.3333H8.33301ZM10.9997 13.6666H24.333C24.333 12.9333 24.5941 12.3055 25.1163 11.7833C25.6386 11.261 26.2663 10.9999 26.9997 10.9999V5.66659C26.2663 5.66659 25.6386 5.40547 25.1163 4.88325C24.5941 4.36103 24.333 3.73325 24.333 2.99992H10.9997C10.9997 3.73325 10.7386 4.36103 10.2163 4.88325C9.69412 5.40547 9.06634 5.66659 8.33301 5.66659V10.9999C9.06634 10.9999 9.69412 11.261 10.2163 11.7833C10.7386 12.3055 10.9997 12.9333 10.9997 13.6666ZM25.6663 21.6666H2.99967C2.26634 21.6666 1.63856 21.4055 1.11634 20.8833C0.594119 20.361 0.333008 19.7333 0.333008 18.9999V4.33325H2.99967V18.9999H25.6663V21.6666Z" fill="#2D2E3A"/>
</svg>
