<svg width="19" height="18" viewBox="0 0 19 18" fill="none" xmlns="http://www.w3.org/2000/svg">
<path d="M9.5 12C11.1545 12 12.5 10.6545 12.5 9C12.5 7.3455 11.1545 6 9.5 6C7.8455 6 6.5 7.3455 6.5 9C6.5 10.6545 7.8455 12 9.5 12ZM9.5 7.5C10.313 7.5 11 8.187 11 9C11 9.813 10.313 10.5 9.5 10.5C8.687 10.5 8 9.813 8 9C8 8.187 8.687 7.5 9.5 7.5Z" fill="#6A6B74"/>
<path d="M2.63373 12.102L3.38373 13.3995C3.78198 14.0872 4.74048 14.3453 5.43123 13.947L5.82798 13.7175C6.26189 14.0588 6.74029 14.3394 7.24998 14.5515V15C7.24998 15.8273 7.92273 16.5 8.74998 16.5H10.25C11.0772 16.5 11.75 15.8273 11.75 15V14.5515C12.2595 14.3394 12.7379 14.0591 13.172 13.7183L13.5687 13.9478C14.261 14.3453 15.2172 14.0887 15.617 13.3995L16.3662 12.1027C16.565 11.7583 16.6189 11.349 16.5161 10.9648C16.4133 10.5806 16.1622 10.2529 15.818 10.0538L15.4392 9.83475C15.5198 9.28167 15.5198 8.71983 15.4392 8.16675L15.818 7.94775C16.1621 7.74842 16.413 7.42075 16.5158 7.03662C16.6186 6.65249 16.5648 6.24327 16.3662 5.89875L15.617 4.602C15.2187 3.912 14.261 3.65325 13.5687 4.053L13.172 4.2825C12.7381 3.94118 12.2597 3.6606 11.75 3.4485V3C11.75 2.17275 11.0772 1.5 10.25 1.5H8.74998C7.92273 1.5 7.24998 2.17275 7.24998 3V3.4485C6.74047 3.66063 6.2621 3.94094 5.82798 4.28175L5.43123 4.05225C4.73823 3.654 3.78123 3.912 3.38298 4.60125L2.63373 5.898C2.43497 6.24247 2.38107 6.65176 2.48386 7.03595C2.58666 7.42014 2.83775 7.74781 3.18198 7.947L3.56073 8.166C3.47991 8.71881 3.47991 9.28044 3.56073 9.83325L3.18198 10.0522C2.83785 10.2517 2.58688 10.5795 2.4841 10.9638C2.38133 11.348 2.43514 11.7574 2.63373 12.102ZM5.12823 10.0335C5.04355 9.69551 5.00048 9.34844 4.99998 9C4.99998 8.6535 5.04348 8.3055 5.12748 7.9665C5.16704 7.8085 5.15403 7.64191 5.09042 7.49196C5.02682 7.34201 4.91608 7.21687 4.77498 7.1355L3.93273 6.648L4.68123 5.35125L5.53998 5.84775C5.68003 5.92879 5.84258 5.96221 6.00323 5.94301C6.16389 5.92381 6.31398 5.85301 6.43098 5.74125C6.93837 5.25867 7.55023 4.89961 8.21898 4.692C8.3726 4.6451 8.5071 4.55012 8.6027 4.42105C8.69829 4.29197 8.74992 4.13562 8.74998 3.975V3H10.25V3.975C10.2501 4.13562 10.3017 4.29197 10.3973 4.42105C10.4929 4.55012 10.6274 4.6451 10.781 4.692C11.4496 4.89991 12.0614 5.25893 12.569 5.74125C12.6861 5.85279 12.8362 5.92344 12.9968 5.94264C13.1574 5.96183 13.3199 5.92855 13.46 5.84775L14.318 5.352L15.068 6.64875L14.225 7.1355C14.084 7.21697 13.9733 7.34211 13.9097 7.49203C13.8461 7.64195 13.8331 7.8085 13.8725 7.9665C13.9565 8.3055 14 8.6535 14 9C14 9.34575 13.9565 9.69375 13.8717 10.0335C13.8324 10.1916 13.8456 10.3582 13.9093 10.5081C13.973 10.658 14.0838 10.7831 14.225 10.8645L15.0672 11.3512L14.3187 12.648L13.46 12.1522C13.32 12.0711 13.1574 12.0376 12.9967 12.0568C12.836 12.076 12.6859 12.1469 12.569 12.2587C12.0616 12.7413 11.4497 13.1004 10.781 13.308C10.6274 13.3549 10.4929 13.4499 10.3973 13.579C10.3017 13.708 10.2501 13.8644 10.25 14.025L10.2515 15H8.74998V14.025C8.74992 13.8644 8.69829 13.708 8.6027 13.579C8.5071 13.4499 8.3726 13.3549 8.21898 13.308C7.55036 13.1001 6.93857 12.7411 6.43098 12.2587C6.31421 12.1466 6.16402 12.0755 6.00322 12.0564C5.84241 12.0374 5.67977 12.0713 5.53998 12.153L4.68198 12.6495L3.93198 11.3527L4.77498 10.8645C4.91613 10.7831 5.02695 10.658 5.09068 10.5081C5.15441 10.3582 5.1676 10.1916 5.12823 10.0335Z" fill="#6A6B74"/>
</svg>
