<svg width="19" height="18" viewBox="0 0 19 18" fill="none" xmlns="http://www.w3.org/2000/svg">
<path d="M9.5 11.25C8.12 11.25 8 10.605 8 10.5H6.5C6.5 11.19 6.995 12.4125 8.75 12.69V13.5H10.25V12.69C11.75 12.435 12.5 11.4675 12.5 10.5C12.5 9.66 12.11 8.25 9.5 8.25C8 8.25 8 7.7775 8 7.5C8 7.2225 8.525 6.75 9.5 6.75C10.475 6.75 10.5425 7.23 10.55 7.5H12.05C12.0399 6.98907 11.8561 6.4968 11.5289 6.10422C11.2018 5.71163 10.7507 5.44211 10.25 5.34V4.5H8.75V5.3175C7.25 5.565 6.5 6.5325 6.5 7.5C6.5 8.34 6.89 9.75 9.5 9.75C11 9.75 11 10.26 11 10.5C11 10.74 10.535 11.25 9.5 11.25Z" fill="#6A6B74"/>
<path d="M4.25 1.5H2V3H3.5V15.75C3.5 15.9489 3.57902 16.1397 3.71967 16.2803C3.86032 16.421 4.05109 16.5 4.25 16.5H14.75C14.9489 16.5 15.1397 16.421 15.2803 16.2803C15.421 16.1397 15.5 15.9489 15.5 15.75V3H17V1.5H4.25ZM14 15H5V3H14V15Z" fill="#6A6B74"/>
</svg>
