<svg width="16" height="16" viewBox="0 0 16 16" fill="none" xmlns="http://www.w3.org/2000/svg">
<path d="M7.99997 2.74848C6.62297 2.74848 5.48297 3.04023 4.53722 3.47673L1.78022 0.719727L0.719723 1.78023L3.20597 4.26723C1.24622 5.73123 0.548723 7.73073 0.538223 7.76223L0.459473 7.99923L0.538223 8.23623C0.554723 8.28648 2.27522 13.25 7.99997 13.25C9.37622 13.25 10.5155 12.9582 11.4612 12.5217L14.2197 15.2802L15.2802 14.2197L12.7925 11.732C14.753 10.268 15.4512 8.26848 15.4617 8.23698L15.5405 7.99998L15.4617 7.76298C15.4452 7.71198 13.7247 2.74848 7.99997 2.74848ZM2.05547 7.99998C2.13272 7.82298 2.26097 7.56048 2.44622 7.25823L6.84647 11.6585C3.68672 11.1725 2.39222 8.77623 2.05547 7.99998ZM8.99072 11.6802L3.38072 6.06948C3.65375 5.79634 3.95209 5.54973 4.27172 5.33298L10.313 11.3735C9.88388 11.5207 9.44081 11.6235 8.99072 11.6802ZM11.7267 10.6662L10.571 9.51048C10.8365 9.06348 11 8.55048 11 7.99923C11 7.64373 10.9257 7.30623 10.8087 6.98748C10.7401 7.06902 10.6546 7.13471 10.5581 7.18003C10.4617 7.22534 10.3565 7.24921 10.25 7.24998C10.0511 7.24998 9.86029 7.17096 9.71964 7.03031C9.57899 6.88965 9.49997 6.69889 9.49997 6.49998C9.49997 6.17073 9.71597 5.89848 10.0115 5.79798C9.4649 5.28884 8.74693 5.00374 7.99997 4.99923C7.44872 4.99923 6.93572 5.16273 6.48872 5.42823L5.68622 4.62573C6.43064 4.37023 7.21295 4.24267 7.99997 4.24848C12.0132 4.24848 13.5687 7.13373 13.9445 7.99848C13.4636 9.07413 12.6964 9.99697 11.7267 10.6662Z" fill="#6A6B74"/>
</svg>
