<svg width="19" height="18" viewBox="0 0 19 18" fill="none" xmlns="http://www.w3.org/2000/svg">
<path d="M10.0325 1.71745C9.96273 1.64716 9.87978 1.59136 9.78839 1.55329C9.69699 1.51521 9.59896 1.49561 9.49995 1.49561C9.40095 1.49561 9.30292 1.51521 9.21152 1.55329C9.12013 1.59136 9.03718 1.64716 8.96745 1.71745L2.21745 8.46745C2.14716 8.53718 2.09136 8.62013 2.05329 8.71152C2.01521 8.80292 1.99561 8.90095 1.99561 8.99995C1.99561 9.09896 2.01521 9.19699 2.05329 9.28839C2.09136 9.37978 2.14716 9.46273 2.21745 9.53245C2.28753 9.60196 2.37065 9.65696 2.46202 9.69428C2.5534 9.73161 2.65125 9.75052 2.74995 9.74995H3.49995V15C3.49995 15.3978 3.65799 15.7793 3.93929 16.0606C4.2206 16.3419 4.60213 16.5 4.99995 16.5H14C14.3978 16.5 14.7793 16.3419 15.0606 16.0606C15.3419 15.7793 15.5 15.3978 15.5 15V9.74995H16.25C16.4489 9.74995 16.6396 9.67094 16.7803 9.53028C16.9209 9.38963 17 9.19887 17 8.99995C17.0005 8.90125 16.9816 8.8034 16.9443 8.71202C16.907 8.62065 16.852 8.53753 16.7825 8.46745L10.0325 1.71745ZM4.99995 15V7.80745L9.49995 3.30745L14 7.80745V15H4.99995Z" fill="#6A6B74"/>
</svg>
