<svg width="19" height="18" viewBox="0 0 19 18" fill="none" xmlns="http://www.w3.org/2000/svg">
<path d="M3.875 6.41406C3.875 7.91031 5.00375 9.03906 6.5 9.03906C7.99625 9.03906 9.125 7.91031 9.125 6.41406C9.125 4.91781 7.99625 3.78906 6.5 3.78906C5.00375 3.78906 3.875 4.91781 3.875 6.41406ZM14.75 6.00006H13.25V8.25006H11V9.75006H13.25V12.0001H14.75V9.75006H17V8.25006H14.75V6.00006ZM3.5 14.2501H11V13.5001C11 11.4323 9.31775 9.75006 7.25 9.75006H5.75C3.68225 9.75006 2 11.4323 2 13.5001V14.2501H3.5Z" fill="#FFFFFF"/>
</svg>
