<svg width="30" height="30" viewBox="0 0 30 30" fill="none" xmlns="http://www.w3.org/2000/svg">
<path d="M23.2563 22.9006C22.6812 22.9027 22.1114 22.7908 21.5798 22.5714C21.0483 22.352 20.5654 22.0294 20.1592 21.6223L15.6857 17.1459C15.5274 16.9946 15.3169 16.9102 15.098 16.9102C14.8791 16.9102 14.6686 16.9946 14.5104 17.1459L10.0217 21.6346C9.61573 22.0423 9.13303 22.3655 8.60146 22.5856C8.06988 22.8056 7.49997 22.9182 6.92465 22.9167H6.04883L11.7176 28.5854C12.5678 29.4338 13.7198 29.9103 14.9209 29.9103C16.1219 29.9103 17.274 29.4338 18.1242 28.5854L23.8042 22.9044L23.2563 22.9006Z" fill="#32BCAD"/>
<path d="M6.92559 7.08105C7.50092 7.07952 8.07085 7.19203 8.60243 7.41209C9.13402 7.63215 9.61671 7.9554 10.0226 8.36313L14.5113 12.8528C14.6673 13.0083 14.8786 13.0957 15.099 13.0957C15.3193 13.0957 15.5306 13.0083 15.6866 12.8528L20.1592 8.38014C20.5648 7.97189 21.0474 7.64825 21.5791 7.42801C22.1107 7.20776 22.6808 7.09529 23.2563 7.09712H23.7948L18.1147 1.41705C17.6941 0.996281 17.1947 0.662503 16.6451 0.434779C16.0955 0.207054 15.5064 0.0898438 14.9114 0.0898438C14.3165 0.0898438 13.7274 0.207054 13.1777 0.434779C12.6281 0.662503 12.1287 0.996281 11.7081 1.41705L6.04883 7.08105H6.92559Z" fill="#32BCAD"/>
<path d="M28.4932 11.7967L25.0608 8.36424C24.9834 8.39588 24.9007 8.41255 24.817 8.41337H23.2562C22.444 8.4154 21.6655 8.73796 21.0898 9.31092L16.6172 13.7807C16.2144 14.1828 15.6685 14.4086 15.0994 14.4086C14.5303 14.4086 13.9844 14.1828 13.5816 13.7807L9.09197 9.29391C8.51647 8.72061 7.73789 8.3977 6.92557 8.39542H5.00953C4.93057 8.39364 4.85253 8.37797 4.77901 8.34912L1.32486 11.7967C0.476468 12.6469 0 13.7989 0 15C0 16.201 0.476468 17.3531 1.32486 18.2033L4.77145 21.6499C4.84482 21.6205 4.92295 21.6048 5.00198 21.6036H6.92557C7.73787 21.6012 8.51641 21.2783 9.09197 20.7051L13.5807 16.2164C14.3922 15.4057 15.8066 15.4057 16.6172 16.2164L21.0898 20.6881C21.6655 21.261 22.444 21.5836 23.2562 21.5856H24.817C24.9007 21.5862 24.9834 21.6029 25.0608 21.6347L28.4932 18.2023C28.914 17.7817 29.2477 17.2823 29.4755 16.7327C29.7032 16.1831 29.8204 15.594 29.8204 14.999C29.8204 14.4041 29.7032 13.815 29.4755 13.2653C29.2477 12.7157 28.914 12.2163 28.4932 11.7957" fill="#32BCAD"/>
</svg>
