<svg width="28" height="22" viewBox="0 0 28 22" fill="none" xmlns="http://www.w3.org/2000/svg">
<path d="M14.0003 17.6666C14.3781 17.6666 14.6948 17.5388 14.9503 17.2833C15.2059 17.0277 15.3337 16.711 15.3337 16.3333C15.3337 15.9555 15.2059 15.6388 14.9503 15.3833C14.6948 15.1277 14.3781 14.9999 14.0003 14.9999C13.6225 14.9999 13.3059 15.1277 13.0503 15.3833C12.7948 15.6388 12.667 15.9555 12.667 16.3333C12.667 16.711 12.7948 17.0277 13.0503 17.2833C13.3059 17.5388 13.6225 17.6666 14.0003 17.6666ZM14.0003 12.3333C14.3781 12.3333 14.6948 12.2055 14.9503 11.9499C15.2059 11.6944 15.3337 11.3777 15.3337 10.9999C15.3337 10.6221 15.2059 10.3055 14.9503 10.0499C14.6948 9.79436 14.3781 9.66658 14.0003 9.66658C13.6225 9.66658 13.3059 9.79436 13.0503 10.0499C12.7948 10.3055 12.667 10.6221 12.667 10.9999C12.667 11.3777 12.7948 11.6944 13.0503 11.9499C13.3059 12.2055 13.6225 12.3333 14.0003 12.3333ZM14.0003 6.99992C14.3781 6.99992 14.6948 6.87214 14.9503 6.61658C15.2059 6.36103 15.3337 6.04436 15.3337 5.66658C15.3337 5.28881 15.2059 4.97214 14.9503 4.71659C14.6948 4.46103 14.3781 4.33325 14.0003 4.33325C13.6225 4.33325 13.3059 4.46103 13.0503 4.71659C12.7948 4.97214 12.667 5.28881 12.667 5.66658C12.667 6.04436 12.7948 6.36103 13.0503 6.61658C13.3059 6.87214 13.6225 6.99992 14.0003 6.99992ZM24.667 21.6666H3.33366C2.60033 21.6666 1.97255 21.4055 1.45033 20.8833C0.928103 20.361 0.666992 19.7333 0.666992 18.9999V13.6666C1.40033 13.6666 2.0281 13.4055 2.55033 12.8833C3.07255 12.361 3.33366 11.7333 3.33366 10.9999C3.33366 10.2666 3.07255 9.63881 2.55033 9.11658C2.0281 8.59436 1.40033 8.33325 0.666992 8.33325V2.99992C0.666992 2.26659 0.928103 1.63881 1.45033 1.11659C1.97255 0.594363 2.60033 0.333252 3.33366 0.333252H24.667C25.4003 0.333252 26.0281 0.594363 26.5503 1.11659C27.0725 1.63881 27.3337 2.26659 27.3337 2.99992V8.33325C26.6003 8.33325 25.9725 8.59436 25.4503 9.11658C24.9281 9.63881 24.667 10.2666 24.667 10.9999C24.667 11.7333 24.9281 12.361 25.4503 12.8833C25.9725 13.4055 26.6003 13.6666 27.3337 13.6666V18.9999C27.3337 19.7333 27.0725 20.361 26.5503 20.8833C26.0281 21.4055 25.4003 21.6666 24.667 21.6666ZM24.667 18.9999V15.5999C23.8448 15.111 23.1948 14.461 22.717 13.6499C22.2392 12.8388 22.0003 11.9555 22.0003 10.9999C22.0003 10.0444 22.2392 9.16103 22.717 8.34992C23.1948 7.53881 23.8448 6.88881 24.667 6.39992V2.99992H3.33366V6.39992C4.15588 6.88881 4.80588 7.53881 5.28366 8.34992C5.76144 9.16103 6.00033 10.0444 6.00033 10.9999C6.00033 11.9555 5.76144 12.8388 5.28366 13.6499C4.80588 14.461 4.15588 15.111 3.33366 15.5999V18.9999H24.667Z" fill="#2D2E3A"/>
</svg>
