<svg width="27" height="22" viewBox="0 0 27 22" fill="none" xmlns="http://www.w3.org/2000/svg">
<path d="M9.76602 16.3333L13.4993 13.5333L17.166 16.3333L15.766 11.7999L19.4993 8.86659H14.966L13.4993 4.33325L12.0327 8.86659H7.49935L11.166 11.7999L9.76602 16.3333ZM2.83268 21.6666C2.09935 21.6666 1.47157 21.4055 0.949349 20.8833C0.427127 20.361 0.166016 19.7333 0.166016 18.9999V14.4999C0.166016 14.2555 0.243793 14.0444 0.399349 13.8666C0.554904 13.6888 0.754904 13.5777 0.999349 13.5333C1.53268 13.3555 1.97157 13.0333 2.31602 12.5666C2.66046 12.0999 2.83268 11.5777 2.83268 10.9999C2.83268 10.4221 2.66046 9.89992 2.31602 9.43325C1.97157 8.96659 1.53268 8.64436 0.999349 8.46659C0.754904 8.42214 0.554904 8.31103 0.399349 8.13325C0.243793 7.95547 0.166016 7.74436 0.166016 7.49992V2.99992C0.166016 2.26659 0.427127 1.63881 0.949349 1.11659C1.47157 0.594363 2.09935 0.333252 2.83268 0.333252H24.166C24.8993 0.333252 25.5271 0.594363 26.0493 1.11659C26.5716 1.63881 26.8327 2.26659 26.8327 2.99992V7.49992C26.8327 7.74436 26.7549 7.95547 26.5993 8.13325C26.4438 8.31103 26.2438 8.42214 25.9993 8.46659C25.466 8.64436 25.0271 8.96659 24.6827 9.43325C24.3382 9.89992 24.166 10.4221 24.166 10.9999C24.166 11.5777 24.3382 12.0999 24.6827 12.5666C25.0271 13.0333 25.466 13.3555 25.9993 13.5333C26.2438 13.5777 26.4438 13.6888 26.5993 13.8666C26.7549 14.0444 26.8327 14.2555 26.8327 14.4999V18.9999C26.8327 19.7333 26.5716 20.361 26.0493 20.8833C25.5271 21.4055 24.8993 21.6666 24.166 21.6666H2.83268ZM2.83268 18.9999H24.166V15.5999C23.3438 15.111 22.6938 14.461 22.216 13.6499C21.7382 12.8388 21.4993 11.9555 21.4993 10.9999C21.4993 10.0444 21.7382 9.16103 22.216 8.34992C22.6938 7.53881 23.3438 6.88881 24.166 6.39992V2.99992H2.83268V6.39992C3.6549 6.88881 4.3049 7.53881 4.78268 8.34992C5.26046 9.16103 5.49935 10.0444 5.49935 10.9999C5.49935 11.9555 5.26046 12.8388 4.78268 13.6499C4.3049 14.461 3.6549 15.111 2.83268 15.5999V18.9999Z" fill="#2D2E3A"/>
</svg>
