<svg width="19" height="18" viewBox="0 0 19 18" fill="none" xmlns="http://www.w3.org/2000/svg">
<path d="M9.5 12.75C9.7125 12.75 9.89063 12.6781 10.0344 12.5344C10.1781 12.3906 10.25 12.2125 10.25 12C10.25 11.7875 10.1781 11.6094 10.0344 11.4656C9.89063 11.3219 9.7125 11.25 9.5 11.25C9.2875 11.25 9.10938 11.3219 8.96563 11.4656C8.82188 11.6094 8.75 11.7875 8.75 12C8.75 12.2125 8.82188 12.3906 8.96563 12.5344C9.10938 12.6781 9.2875 12.75 9.5 12.75ZM9.5 9.75C9.7125 9.75 9.89063 9.67813 10.0344 9.53438C10.1781 9.39063 10.25 9.2125 10.25 9C10.25 8.7875 10.1781 8.60938 10.0344 8.46563C9.89063 8.32188 9.7125 8.25 9.5 8.25C9.2875 8.25 9.10938 8.32188 8.96563 8.46563C8.82188 8.60938 8.75 8.7875 8.75 9C8.75 9.2125 8.82188 9.39063 8.96563 9.53438C9.10938 9.67813 9.2875 9.75 9.5 9.75ZM9.5 6.75C9.7125 6.75 9.89063 6.67813 10.0344 6.53438C10.1781 6.39063 10.25 6.2125 10.25 6C10.25 5.7875 10.1781 5.60938 10.0344 5.46563C9.89063 5.32188 9.7125 5.25 9.5 5.25C9.2875 5.25 9.10938 5.32188 8.96563 5.46563C8.82188 5.60938 8.75 5.7875 8.75 6C8.75 6.2125 8.82188 6.39063 8.96563 6.53438C9.10938 6.67813 9.2875 6.75 9.5 6.75ZM15.5 15H3.5C3.0875 15 2.73438 14.8531 2.44063 14.5594C2.14687 14.2656 2 13.9125 2 13.5V10.5C2.4125 10.5 2.76562 10.3531 3.05938 10.0594C3.35313 9.76563 3.5 9.4125 3.5 9C3.5 8.5875 3.35313 8.23438 3.05938 7.94063C2.76562 7.64688 2.4125 7.5 2 7.5V4.5C2 4.0875 2.14687 3.73438 2.44063 3.44063C2.73438 3.14687 3.0875 3 3.5 3H15.5C15.9125 3 16.2656 3.14687 16.5594 3.44063C16.8531 3.73438 17 4.0875 17 4.5V7.5C16.5875 7.5 16.2344 7.64688 15.9406 7.94063C15.6469 8.23438 15.5 8.5875 15.5 9C15.5 9.4125 15.6469 9.76563 15.9406 10.0594C16.2344 10.3531 16.5875 10.5 17 10.5V13.5C17 13.9125 16.8531 14.2656 16.5594 14.5594C16.2656 14.8531 15.9125 15 15.5 15ZM15.5 13.5V11.5875C15.0375 11.3125 14.6719 10.9469 14.4031 10.4906C14.1344 10.0344 14 9.5375 14 9C14 8.4625 14.1344 7.96563 14.4031 7.50938C14.6719 7.05313 15.0375 6.6875 15.5 6.4125V4.5H3.5V6.4125C3.9625 6.6875 4.32812 7.05313 4.59688 7.50938C4.86563 7.96563 5 8.4625 5 9C5 9.5375 4.86563 10.0344 4.59688 10.4906C4.32812 10.9469 3.9625 11.3125 3.5 11.5875V13.5H15.5Z" fill="#FFFFFF"/>
</svg>
